<svg width="161" height="161" viewBox="0 0 161 161" fill="none" xmlns="http://www.w3.org/2000/svg">
<path d="M154.547 86.9639C138.592 101.956 127.889 113.486 121.608 124.663C115.345 135.81 113.471 146.626 115.234 160.223L115.308 160.787H94.8467L94.8828 160.253C96.1195 141.859 100.489 128.747 109.794 117.514C119.08 106.302 133.248 97.0042 153.973 86.1562L154.547 86.9639ZM60.5059 70.4434C44.5512 85.4352 33.8477 96.9656 27.5674 108.143C21.3041 119.29 19.4295 130.105 21.1934 143.702L21.2666 144.267H0.805664L0.841797 143.732C2.07843 125.338 6.44849 112.227 15.7529 100.993C25.0391 89.7816 39.2069 80.4837 59.9316 69.6357L60.5059 70.4434ZM160.806 25.0215L160.595 25.5176C153.098 43.1626 144.37 55.1543 131.493 64.4971C118.639 73.8233 101.7 80.4729 77.8633 87.5283L77.5459 86.6777C98.1688 74.7997 112.511 65.4005 122.438 55.6006C132.34 45.8249 137.866 35.6325 140.812 22.1289L140.931 21.5869L160.806 25.0215ZM87.542 11.7373L87.04 11.9873C71.1002 19.9398 60.5526 28.0205 52.5264 38.6475C44.491 49.2867 38.9685 62.4965 33.1211 80.7324L31.9805 80.6299C30.2288 62.5474 31.0748 48.968 37.166 36.7451C43.2595 24.5179 54.5814 13.6894 73.6699 1.07129L74.0996 0.787109L87.542 11.7373Z" fill="black"/>
</svg>
