<svg width="16" height="16" viewBox="0 0 16 16" fill="none" xmlns="http://www.w3.org/2000/svg">
<path d="M15.1045 8.94336C13.6208 10.3486 12.6706 11.3889 12.123 12.3711C11.5921 13.3235 11.43 14.2394 11.583 15.4287L11.6562 15.9922H8.75195L8.78711 15.459C8.90637 13.6715 9.33379 12.3406 10.2773 11.1924C11.2029 10.0662 12.5917 9.15893 14.5273 8.1377L15.1045 8.94336ZM9.32617 1.63672L8.82617 1.88867C7.39404 2.60886 6.46723 3.32805 5.76172 4.26953C5.14397 5.09403 4.68523 6.10232 4.22168 7.46191C4.69494 7.17544 5.21133 6.88548 5.77539 6.58789L6.35254 7.39355C4.86887 8.79877 3.91869 9.83905 3.37109 10.8213C2.84018 11.7737 2.67807 12.6896 2.83105 13.8789L2.9043 14.4424H0L0.0351562 13.9092C0.154426 12.1217 0.581848 10.7908 1.52539 9.64258C1.99161 9.07529 2.57512 8.56319 3.28711 8.06445L2.86426 8.02734C2.69975 6.31534 2.77382 4.98167 3.375 3.76562C3.97841 2.54526 5.09208 1.48382 6.89844 0.280273L7.32715 -0.00488281L9.32617 1.63672ZM16.001 2.45996L15.792 2.95508C15.0712 4.6649 14.2087 5.8804 12.9062 6.83301C11.626 7.76928 9.9687 8.41452 7.74121 9.0791L7.41895 8.22949C9.33621 7.11644 10.613 6.26552 11.4805 5.40234C12.3238 4.56321 12.7957 3.69529 13.0527 2.50781L13.1699 1.9668L16.001 2.45996Z" fill="black"/>
</svg>
